<svg width="48" height="48" viewBox="0 0 48 48" fill="none" xmlns="http://www.w3.org/2000/svg">
<path d="M24 48C37.2548 48 48 37.2548 48 24C48 10.7452 37.2548 0 24 0C10.7452 0 0 10.7452 0 24C0 37.2548 10.7452 48 24 48Z" fill="#A52A2A" fill-opacity="0.7"/>
<path d="M24 6.33963C24.7502 6.33963 25.3585 5.73141 25.3585 4.98114C25.3585 4.23087 24.7502 3.62265 24 3.62265C23.2497 3.62265 22.6415 4.23087 22.6415 4.98114C22.6415 5.73141 23.2497 6.33963 24 6.33963Z" fill="white" fill-opacity="0.9"/>
<path d="M4.98117 25.3585C5.73144 25.3585 6.33966 24.7503 6.33966 24C6.33966 23.2497 5.73144 22.6415 4.98117 22.6415C4.2309 22.6415 3.62268 23.2497 3.62268 24C3.62268 24.7503 4.2309 25.3585 4.98117 25.3585Z" fill="white" fill-opacity="0.9"/>
<path d="M43.0189 25.3585C43.7692 25.3585 44.3774 24.7503 44.3774 24C44.3774 23.2497 43.7692 22.6415 43.0189 22.6415C42.2686 22.6415 41.6604 23.2497 41.6604 24C41.6604 24.7503 42.2686 25.3585 43.0189 25.3585Z" fill="white" fill-opacity="0.9"/>
<path d="M24 44.3773C24.7502 44.3773 25.3585 43.7691 25.3585 43.0189C25.3585 42.2686 24.7502 41.6604 24 41.6604C23.2497 41.6604 22.6415 42.2686 22.6415 43.0189C22.6415 43.7691 23.2497 44.3773 24 44.3773Z" fill="white" fill-opacity="0.9"/>
<path fill-rule="evenodd" clip-rule="evenodd" d="M24 7.69812L24.9057 23.5472H23.0944L24 7.69812Z" fill="#AFB9C5"/>
<path fill-rule="evenodd" clip-rule="evenodd" d="M32.0144 32.0144L23.6892 24.97L24.97 23.6892L32.0144 32.0144Z" fill="#AFB9C5"/>
<path d="M24 25.8113C25.0004 25.8113 25.8114 25.0004 25.8114 24C25.8114 22.9996 25.0004 22.1887 24 22.1887C22.9997 22.1887 22.1887 22.9996 22.1887 24C22.1887 25.0004 22.9997 25.8113 24 25.8113Z" fill="#C5CFD6"/>
</svg>
