<svg width="47" height="56" viewBox="0 0 47 56" fill="none" xmlns="http://www.w3.org/2000/svg">
<path d="M23.5699 17.5724C30.5347 17.5724 35.3883 14.9678 35.3883 12.6304L35.37 9.82941C34.6921 10.5294 33.7498 11.1603 32.5659 11.6918C30.1474 12.7778 26.9451 13.3762 23.5492 13.3762C20.1533 13.3762 16.9509 12.7783 14.5325 11.6918C13.3731 11.1713 12.4452 10.5561 11.7706 9.87316L11.751 12.631C11.7515 14.9649 16.6051 17.5724 23.5699 17.5724Z" fill="#A52A2A"/>
<path d="M23.5496 11.8446C30.0603 11.8446 35.3382 9.6884 35.3382 7.02866C35.3382 4.36892 30.0603 2.21277 23.5496 2.21277C17.0389 2.21277 11.7609 4.36892 11.7609 7.02866C11.7609 9.6884 17.0389 11.8446 23.5496 11.8446Z" fill="#A52A2A"/>
<path d="M33.7996 16.7551C33.4126 16.9883 33.0156 17.1974 32.6104 17.3816C30.1849 18.4921 26.974 19.1037 23.57 19.1037C20.166 19.1037 16.9559 18.4912 14.5295 17.3785C14.1302 17.1954 13.7587 17.0013 13.415 16.7963L14.691 34.4851C14.9021 34.7617 15.4904 35.2386 16.9145 35.6925C18.6696 36.2517 21.0139 36.5596 23.5158 36.5596C26.0177 36.5596 28.362 36.2517 30.117 35.6925C32.0487 35.0769 32.4435 34.4184 32.4435 34.2756C32.4435 34.1152 32.486 33.9589 32.5649 33.8289L33.7996 16.7551Z" fill="#A52A2A"/>
<path d="M24.0508 38.0844V37.4063H22.7656V37.7441V38.082C20.4707 38.0287 18.251 37.7109 16.559 37.1717C15.9602 36.9899 15.3774 36.7396 14.8189 36.4242L14.9121 37.6375C15.0855 40.1731 16.0541 42.5379 17.625 44.2608C19.0453 45.7973 20.8533 46.7289 22.7656 46.9098V53.0216C22.7656 53.2247 22.8333 53.4194 22.9538 53.563C23.0743 53.7066 23.2378 53.7873 23.4082 53.7873C23.5786 53.7873 23.7421 53.7066 23.8626 53.563C23.9831 53.4194 24.0508 53.2247 24.0508 53.0216V46.9295C26.0891 46.8625 28.0374 45.9141 29.532 44.2613C31.1116 42.5423 32.0915 40.1789 32.2773 37.6396L32.3792 36.3108C31.756 36.6835 31.0998 36.9721 30.4228 37.1712C28.7013 37.7202 26.5293 38.0407 24.0508 38.0844ZM8.76797 47.9797C8.7038 48.1678 8.70497 48.3786 8.77123 48.5657C8.83749 48.7528 8.96341 48.9008 9.1213 48.9773C9.27918 49.0537 9.45609 49.0524 9.61311 48.9734C9.77014 48.8945 9.8944 48.7444 9.95858 48.5563L14.5484 35.1032L13.3578 34.5266L8.76797 47.9797ZM33.6422 34.5266L32.4516 35.1032L37.0414 48.5563C37.1056 48.7444 37.2299 48.8945 37.3869 48.9734C37.5439 49.0524 37.7208 49.0537 37.8787 48.9773C38.0366 48.9008 38.1625 48.7528 38.2288 48.5657C38.295 48.3786 38.2962 48.1678 38.232 47.9797L33.6422 34.5266Z" fill="#A52A2A"/>
</svg>
