<svg width="165" height="56" viewBox="0 0 165 56" fill="none" xmlns="http://www.w3.org/2000/svg">
<path d="M141.57 17.5724C148.535 17.5724 153.388 14.9678 153.388 12.6304L153.37 9.82941C152.692 10.5294 151.75 11.1603 150.566 11.6918C148.147 12.7778 144.945 13.3762 141.549 13.3762C138.153 13.3762 134.951 12.7783 132.532 11.6918C131.373 11.1713 130.445 10.5561 129.771 9.87316L129.751 12.631C129.751 14.9649 134.605 17.5724 141.57 17.5724Z" fill="#A52A2A"/>
<path d="M141.55 11.8446C148.06 11.8446 153.338 9.6884 153.338 7.02866C153.338 4.36892 148.06 2.21277 141.55 2.21277C135.039 2.21277 129.761 4.36892 129.761 7.02866C129.761 9.6884 135.039 11.8446 141.55 11.8446Z" fill="#A52A2A"/>
<path d="M151.8 16.7551C151.413 16.9883 151.016 17.1974 150.61 17.3816C148.185 18.4921 144.974 19.1037 141.57 19.1037C138.166 19.1037 134.956 18.4912 132.53 17.3785C132.13 17.1954 131.759 17.0013 131.415 16.7963L132.691 34.4851C132.902 34.7617 133.49 35.2386 134.914 35.6925C136.67 36.2517 139.014 36.5596 141.516 36.5596C144.018 36.5596 146.362 36.2517 148.117 35.6925C150.049 35.0769 150.443 34.4184 150.443 34.2756C150.443 34.1152 150.486 33.9589 150.565 33.8289L151.8 16.7551Z" fill="#A52A2A"/>
<path d="M142.051 38.0844V37.4063H140.766V37.7441V38.082C138.471 38.0287 136.251 37.7109 134.559 37.1717C133.96 36.9899 133.377 36.7396 132.819 36.4242L132.912 37.6375C133.085 40.1731 134.054 42.5379 135.625 44.2608C137.045 45.7973 138.853 46.7289 140.766 46.9098V53.0216C140.766 53.2247 140.833 53.4194 140.954 53.563C141.074 53.7066 141.238 53.7873 141.408 53.7873C141.579 53.7873 141.742 53.7066 141.863 53.563C141.983 53.4194 142.051 53.2247 142.051 53.0216V46.9295C144.089 46.8625 146.037 45.9141 147.532 44.2613C149.112 42.5423 150.092 40.1789 150.277 37.6396L150.379 36.3108C149.756 36.6835 149.1 36.9721 148.423 37.1712C146.701 37.7202 144.529 38.0407 142.051 38.0844ZM126.768 47.9797C126.704 48.1678 126.705 48.3786 126.771 48.5657C126.837 48.7528 126.963 48.9008 127.121 48.9773C127.279 49.0537 127.456 49.0524 127.613 48.9734C127.77 48.8945 127.894 48.7444 127.959 48.5563L132.548 35.1032L131.358 34.5266L126.768 47.9797ZM151.642 34.5266L150.452 35.1032L155.041 48.5563C155.106 48.7444 155.23 48.8945 155.387 48.9734C155.544 49.0524 155.721 49.0537 155.879 48.9773C156.037 48.9008 156.162 48.7528 156.229 48.5657C156.295 48.3786 156.296 48.1678 156.232 47.9797L151.642 34.5266Z" fill="#A52A2A"/>
<path d="M11.112 15.824L13.56 16.016L16.8 17.36L18.84 19.976L17.352 21.488L16.104 20.84L14.28 18.824L11.688 18.056L9.264 18.752L7.416 21.344L6.792 25.544L7.728 30.464L11.688 32.984L13.944 32.696L15.528 31.424V26.744L18.072 24.2L20.616 26.744V32.384L16.2 34.736L11.112 35.528L7.08 34.832L3.888 32.792L1.776 29.624L1.08 25.664L1.776 21.68L3.888 18.56L7.08 16.496L11.112 15.824ZM32.7191 28.568L30.0791 24.464H28.0871L28.1111 28.664L28.0871 32.864H29.7671L32.7431 28.568H32.7191ZM28.1111 21.848H29.9111L33.2231 22.088L35.8151 23.192L38.1911 28.52L36.7271 33.368L31.7831 35L28.1831 35.024L24.5591 35L22.8071 33.272L22.7831 28.712V24.152V19.592L22.8071 15.032H28.1111V18.44V21.848ZM51.0424 26.504L50.1304 24.944L48.1864 24.392L45.6184 26.504H51.0424ZM45.4504 29.216L48.3064 32.264L52.4104 30.488L54.0904 32.024L52.2184 34.328L48.2104 35.456L44.9704 35L42.4744 33.68L40.1944 28.352L42.4264 23.24L47.9224 21.416L53.2984 23.408L54.7624 25.832L55.0984 29.096L55.0264 29.216L50.2264 29.24L45.4504 29.216ZM62.4242 28.568L65.4002 32.864H67.0802L67.0562 28.664L67.0802 24.464H65.0882L62.4242 28.568ZM67.0562 21.848V18.464V15.056H72.3602V19.592V24.152L72.3842 28.712L72.3602 33.272L70.6082 35L66.9842 35.024L63.3842 35L58.3922 33.368L56.9762 28.52L59.2802 23.12L61.9202 22.064L65.2562 21.848H67.0562ZM84.7549 35V34.088L81.7309 35.24L76.7629 33.824L74.7709 30.128L74.6509 28.952L74.6269 26.936L74.6749 23.024L77.2669 21.272L79.8829 23.024V27.896L82.2829 32.6L84.7549 31.424L84.7309 26.36L84.7549 21.296H89.9629L90.0349 24.728L90.0109 28.136V31.568L89.9629 35H84.7549ZM106.632 16.328L105.168 20.888L103.68 25.448L102.12 29.984L100.536 34.52L99.3358 35.288L98.0638 34.52L96.4078 30.68L94.7758 26.84L93.1918 22.976L91.6078 19.112L91.4638 18.104L94.0558 15.728L96.5038 17.552L98.5198 22.208L100.488 26.912L102.264 21.608L104.088 16.328H106.632ZM113.18 17.456L110.876 19.664L108.572 17.456L110.876 15.056L113.18 17.456ZM113.564 24.2L113.588 29.576L113.564 34.952H108.284L108.26 29.576L108.284 24.2L110.924 21.56L113.564 24.2ZM125.649 28.568L123.009 24.464H121.017L121.041 28.664L121.017 32.864H122.697L125.673 28.568H125.649ZM121.041 21.848H122.841L126.153 22.088L128.745 23.192L131.121 28.52L129.657 33.368L124.713 35L121.113 35.024L117.489 35L115.737 33.272L115.713 28.712V24.152V19.592L115.737 15.032H121.041V18.44V21.848Z" fill="#228B22"/>
<path d="M143.972 26.504L143.06 24.944L141.116 24.392L138.548 26.504H143.972ZM138.38 29.216L141.236 32.264L145.34 30.488L147.02 32.024L145.148 34.328L141.14 35.456L137.9 35L135.404 33.68L133.124 28.352L135.356 23.24L140.852 21.416L146.228 23.408L147.692 25.832L148.028 29.096L147.956 29.216L143.156 29.24L138.38 29.216Z" fill="white"/>
</svg>
