<svg width="269" height="269" viewBox="0 0 269 269" fill="none" xmlns="http://www.w3.org/2000/svg">
<path d="M195.081 180.706C194.752 180.667 194.426 180.612 194.102 180.539" stroke="#CCDDE2" stroke-width="1.40149" stroke-miterlimit="10"/>
<path d="M63.4084 77.6092C63.4084 77.6092 52.7237 24.7049 101.23 14.3888C104.085 13.7716 106.997 13.4569 109.919 13.45C119.191 13.45 127.713 16.8744 134.841 23.7554C138.971 27.75 141.817 32.6324 144.891 37.3237C146.82 40.2827 148.854 43.161 151.347 45.7219C158.239 52.7993 167.576 55.8094 176.655 59.1719C184.639 62.1121 192.418 65.3293 198.142 71.8149C205.427 80.0571 212.937 88.7431 216.787 99.2153C218.385 103.601 219.604 108.116 220.429 112.711C222.514 124.143 222.597 135.821 220.069 147.181C217.336 159.477 210.196 171.054 200.808 179.388" stroke="#CCDDE2" stroke-width="1.40149" stroke-miterlimit="10"/>
<path d="M203.23 164.335L200.596 179.063C200.523 179.475 200.306 179.849 199.985 180.119C199.663 180.388 199.257 180.535 198.837 180.534H185.072C184.649 180.534 184.239 180.384 183.916 180.11C183.592 179.836 183.377 179.456 183.308 179.038L180.887 164.335H203.23Z" stroke="#CCDDE2" stroke-width="1.40149" stroke-miterlimit="10"/>
<path d="M205.734 162.691C205.697 163.139 205.494 163.557 205.163 163.861C204.833 164.166 204.4 164.335 203.95 164.335H180.203C179.759 164.335 179.331 164.17 179.002 163.871C178.674 163.573 178.468 163.163 178.425 162.721C178.401 162.473 178.428 162.222 178.507 161.985C178.585 161.749 178.712 161.531 178.879 161.346C179.047 161.161 179.251 161.014 179.479 160.913C179.707 160.812 179.954 160.76 180.203 160.76H203.95C204.197 160.76 204.441 160.811 204.667 160.911C204.893 161.01 205.097 161.155 205.264 161.336C205.432 161.517 205.56 161.731 205.641 161.965C205.721 162.198 205.753 162.445 205.734 162.691Z" stroke="#CCDDE2" stroke-width="1.40149" stroke-miterlimit="10"/>
<path d="M192.819 160.757C192.819 160.004 194.737 150.608 193.147 142.274C192.276 137.701 190.347 133.454 186.471 131.127" stroke="#CCDDE2" stroke-width="1.40149" stroke-miterlimit="10"/>
<path d="M193.142 142.274C193.142 142.274 193.58 135.945 199.06 135.506" stroke="#CCDDE2" stroke-width="1.40149" stroke-miterlimit="10"/>
<path d="M193.728 151.934C195.286 150.844 197.161 150.302 199.06 150.395" stroke="#CCDDE2" stroke-width="1.40149" stroke-miterlimit="10"/>
<path d="M193.729 147.439C193.729 147.439 189.756 142.731 183.404 146.454" stroke="#CCDDE2" stroke-width="1.40149" stroke-miterlimit="10"/>
<path d="M190.931 145.545C190.931 145.545 181.981 137.368 180.23 148.423C180.23 148.423 182.748 150.067 186.471 148.423C190.194 146.78 190.931 145.545 190.931 145.545Z" stroke="#CCDDE2" stroke-width="1.40149" stroke-miterlimit="10"/>
<path d="M195.117 137.435C195.117 137.435 194.791 133.755 199.06 132.55C203.329 131.345 205.74 136.383 205.74 136.383C205.74 136.383 202.45 140.02 195.117 137.435Z" stroke="#CCDDE2" stroke-width="1.40149" stroke-miterlimit="10"/>
<path d="M196.102 150.39C196.102 150.39 195.956 146.67 200.919 147.431C205.882 148.192 206.687 152.432 206.687 152.432C206.687 152.432 198.555 155.412 196.102 150.775" stroke="#CCDDE2" stroke-width="1.40149" stroke-miterlimit="10"/>
<path d="M190.124 134.567C190.124 134.836 186.39 134.234 186.154 134.164C184.346 133.626 183.063 132.372 182.218 130.715C181.949 130.201 180.454 127.32 180.873 126.82C180.879 126.82 189.758 123.963 190.124 134.567Z" stroke="#CCDDE2" stroke-width="1.40149" stroke-miterlimit="10"/>
<path d="M166.169 92.6624L158.287 101.472H152.88L144.689 106.704C143.003 106.401 141.273 106.454 139.608 106.859C137.944 107.263 136.382 108.012 135.024 109.055C131.444 111.745 120.412 122.651 114.817 123.85C113.472 120.641 111.742 117.577 110.782 116.216L149.921 97.3861L151.715 92.6624L163.065 88.0894L166.169 92.6624Z" fill="#D7E8F0"/>
<path d="M108.224 180.577L91.7693 180.453C86.1319 180.414 80.6123 178.833 75.8096 175.88C79.1871 175.876 82.555 175.516 85.8567 174.804C86.0854 174.804 86.3221 174.804 86.5588 174.804C90.4163 174.64 93.8218 172.028 96.0599 168.886C98.298 165.744 99.651 162.067 101.3 158.567C102.949 155.068 105.036 151.614 108.275 149.499C108.585 149.295 108.905 149.109 109.225 148.932C114.112 148.618 119.014 148.591 123.904 148.851C119.541 150.909 104.262 159.635 108.224 180.577Z" fill="#A52A2A" fill-opacity="0.8"/>
<path d="M126.382 137.4C126.382 137.4 124.768 142.314 129.893 144.241C135.017 146.167 134.552 144.165 134.546 147.595C134.546 147.595 135.579 149.08 133.449 149.128C131.318 149.177 122.804 147.842 119.579 148.267C116.354 148.692 110.433 148.432 116.19 146.74C121.946 145.048 125.704 142.258 126.382 137.4Z" fill="#A52A2A"/>
<path d="M96.2781 120.369C97.2594 120.643 98.1358 121.205 98.7932 121.983C99.993 123.328 101.954 124.889 102.263 128.945C102.573 133.002 104.235 134.261 104.601 134.61C104.967 134.96 104.698 136.224 102.298 136.001C99.8988 135.778 92.9102 134.683 93.2195 126.481C93.2195 126.47 93.0097 121.784 96.2781 120.369Z" fill="#2E2E2E"/>
<path d="M86.4751 174.979C83.1732 175.691 79.8055 176.051 76.428 176.055C76.3849 176.023 76.3338 176.004 76.2935 175.972C73.4738 175.901 70.6649 175.598 67.8953 175.065C56.8044 172.948 27.661 126.266 52.4197 111.823C52.4197 111.823 53.1729 111.595 54.4722 111.285C55.8871 113.08 57.8562 114.481 60.4359 115.339C59.4468 116.205 58.5919 117.213 57.8993 118.33C55.9678 121.427 55.4944 125.222 55.6181 128.875C55.8656 136.612 58.5476 144.082 62.0042 151.014C65.9451 158.928 71.083 166.479 78.2626 171.638C80.6997 173.371 83.5027 174.877 86.4751 174.979Z" fill="#228B22" fill-opacity="0.4"/>
<path d="M67.7286 74.6071C67.7286 74.6071 67.594 75.2581 69.2834 75.3792C70.9727 75.5002 78.1415 75.8257 78.9163 83.7182C79.691 91.6106 75.5376 101.553 77.9694 102.15C80.4011 102.747 85.6789 104.141 87.2391 103.172C88.7993 102.204 97.4611 96.649 107.183 100.407C107.183 100.407 108.716 101.908 108.754 97.6631C108.791 93.4183 109.348 86.548 106.424 87.4895C103.5 88.431 101.582 86.8413 100.735 90.5615C99.8875 94.2818 92.4174 91.0538 92.4174 91.0538C92.4174 91.0538 87.7153 87.156 85.1678 79.624C82.6204 72.092 76.1267 72.2265 74.0124 72.5305C71.8981 72.8344 67.7286 74.6071 67.7286 74.6071Z" fill="#228B22"/>
<path d="M178.866 239.41C177.029 238.409 177.069 236.989 176.028 235.738L174.513 238.942C174.374 239.697 174.459 240.477 174.757 241.185C175.056 241.892 175.556 242.497 176.195 242.923L190.613 255.058C191.044 255.348 191.545 255.516 192.064 255.543C192.583 255.57 193.099 255.455 193.558 255.212C194.016 254.968 194.4 254.604 194.668 254.159C194.936 253.714 195.078 253.205 195.078 252.685C195.08 252.372 195.028 252.061 194.925 251.765L166.295 166.683C165.505 164.331 164.258 162.157 162.626 160.288C160.994 158.418 159.008 156.889 156.784 155.789C148.757 151.807 132.617 146.769 110.68 148.687" stroke="black" stroke-width="1.40149" stroke-linecap="round" stroke-linejoin="round"/>
<path d="M176.028 235.746C165.928 221.941 151.281 199.038 148.459 190.226C145.5 181.045 137.204 180.685 129.188 180.881L92.3883 180.612C86.6982 180.577 81.1285 178.97 76.2941 175.969" stroke="black" stroke-width="1.40149" stroke-linecap="round" stroke-linejoin="round"/>
<path d="M155.248 155.057C155.186 147.321 155.227 131.654 155.267 119.28C155.299 108.84 143.353 102.753 135.017 109.058C131.396 111.78 127.383 114.578 123.038 119.301" stroke="black" stroke-width="1.40149" stroke-linecap="round" stroke-linejoin="round"/>
<path d="M135.893 136.838C135.893 136.838 133.693 143.008 134.769 149.311" stroke="black" stroke-width="1.40149" stroke-linecap="round" stroke-linejoin="round"/>
<path d="M104.292 99.9254H104.262C96.1546 98.4594 90.2742 100.821 86.2607 103.877" stroke="black" stroke-width="1.40149" stroke-linecap="round" stroke-linejoin="round"/>
<path d="M54.4728 111.275C53.1735 111.592 52.4203 111.813 52.4203 111.813C27.6723 126.255 56.805 172.937 67.8959 175.054C70.6655 175.587 73.4744 175.89 76.294 175.961C82.9061 176.147 87.2397 175.001 87.2397 175.001" stroke="black" stroke-width="1.40149" stroke-linecap="round" stroke-linejoin="round"/>
<path d="M72.0215 124.2L87.2389 156.181L90.5261 151.797L76.6968 124.2H72.0215Z" stroke="black" stroke-width="1.40149" stroke-linecap="round" stroke-linejoin="round"/>
<path d="M80.0894 130.968L94.2737 124.149V124.138L98.7929 121.973" stroke="black" stroke-width="1.40149" stroke-linecap="round" stroke-linejoin="round"/>
<path d="M144.681 106.704L152.883 101.472H158.29L166.172 92.6624L163.068 88.0921L151.718 92.6624L149.913 97.378L110.771 116.216" stroke="black" stroke-width="1.40149" stroke-linecap="round" stroke-linejoin="round"/>
<path d="M115.455 124.375L123.038 119.299" stroke="black" stroke-width="1.40149" stroke-linecap="round" stroke-linejoin="round"/>
<path d="M103.116 132.628L98.9707 135.404L86.4972 143.751" stroke="black" stroke-width="1.40149" stroke-linecap="round" stroke-linejoin="round"/>
<path d="M116.641 108.168C116.444 101.927 113.875 95.6537 111.349 90.0316C110.909 89.0492 110.42 88.0894 109.883 87.156" stroke="black" stroke-width="1.40149" stroke-linecap="round" stroke-linejoin="round"/>
<path d="M98.9705 76.8883C101.147 83.2232 104.149 95.0861 94.9758 92.2213C82.6018 88.353 89.0444 69.3912 72.022 72.8156C71.9852 72.8261 71.9473 72.8325 71.9091 72.8344C71.9021 72.8323 71.8945 72.8323 71.8875 72.8344H71.866" stroke="black" stroke-width="1.40149" stroke-linecap="round" stroke-linejoin="round"/>
<path d="M66.3273 75.6078C73.0012 74.5668 84.2158 76.1136 76.6946 101.461" stroke="black" stroke-width="1.40149" stroke-linecap="round" stroke-linejoin="round"/>
<path d="M108.367 100.905C109.142 96.4494 108.981 91.8815 107.893 87.4922" stroke="black" stroke-width="1.40149" stroke-linecap="round" stroke-linejoin="round"/>
<path d="M134.468 145.018C134.468 145.018 125.37 144.835 125.822 139.573" stroke="black" stroke-width="1.40149" stroke-linecap="round" stroke-linejoin="round"/>
<path d="M125.669 148.534C125.669 148.534 104.23 156.364 108.846 180.733" stroke="black" stroke-width="1.40149" stroke-linecap="round" stroke-linejoin="round"/>
<path d="M96.2783 120.369C95.0224 121.221 94.0914 122.472 93.6367 123.92C93.0135 126.05 93.1394 128.33 93.9937 130.379C94.8478 132.427 96.3787 134.121 98.3308 135.178C100.157 136.106 102.202 136.27 104.036 135.466C104.364 135.32 104.675 135.139 104.964 134.928" stroke="black" stroke-width="1.40149" stroke-linecap="round" stroke-linejoin="round"/>
<path d="M123.035 119.299C124.086 121.755 124.951 124.286 125.623 126.871C125.654 126.959 125.678 127.049 125.695 127.14C125.8 127.544 125.892 127.947 125.986 128.367C126.088 128.854 126.19 129.327 126.284 129.811C126.306 129.967 126.336 130.121 126.357 130.277C126.361 130.304 126.361 130.333 126.357 130.36C126.376 130.473 126.397 130.586 126.419 130.71C126.438 130.906 126.47 131.113 126.51 131.328C126.505 131.352 126.505 131.377 126.51 131.401" stroke="black" stroke-width="1.40149" stroke-linecap="round" stroke-linejoin="round"/>
<path d="M92.4152 105.448C95.6432 102.365 99.8961 99.8689 104.251 99.9201H104.281C104.622 99.9201 104.983 99.9389 105.325 99.9819C108.232 100.291 110.705 102.22 112.792 104.262C115.226 106.638 117.383 109.283 119.221 112.146" stroke="black" stroke-width="1.40149" stroke-linecap="round" stroke-linejoin="round"/>
<path d="M126.371 130.277C126.375 130.304 126.375 130.332 126.371 130.36C126.39 130.473 126.411 130.586 126.433 130.71C126.866 134.145 126.845 137.314 125.37 140.491C124.122 143.181 121.335 144.875 118.664 145.895C115.393 147.146 111.824 147.754 108.894 149.661C105.666 151.775 103.571 155.232 101.919 158.729C100.267 162.226 98.9277 165.9 96.6789 169.048C94.43 172.195 91.0299 174.804 87.1778 174.966C83.9498 175.089 80.8832 173.5 78.2524 171.614C71.0728 166.454 65.9349 158.904 61.994 150.99C58.5374 144.058 55.8554 136.587 55.608 128.851C55.4842 125.198 55.9577 121.402 57.8891 118.306C58.5818 117.189 59.4366 116.181 60.4258 115.315" stroke="black" stroke-width="1.40149" stroke-linecap="round" stroke-linejoin="round"/>
<path d="M108.845 180.733H43.3922" stroke="black" stroke-width="1.40149" stroke-linecap="round" stroke-linejoin="round"/>
<path d="M210.267 180.733H171.063" stroke="black" stroke-width="1.40149" stroke-linecap="round" stroke-linejoin="round"/>
<path d="M123.883 59.1423V75.1371C123.886 76.6932 123.426 78.2152 122.56 79.5089C121.695 80.8025 120.464 81.8088 119.024 82.4001C115.197 83.9603 110.129 85.7142 101.749 86.0128V74.6072C104.025 75.5191 106.65 74.938 108.474 73.2944C108.864 72.9447 109.246 72.6058 109.604 72.3072C111.006 71.094 112.143 70.3112 112.716 70.5291C113.905 70.9676 114.061 70.9676 114.793 67.1155C115.331 64.3421 119.818 61.2755 120.899 56.178C121.122 55.1173 121.184 54.0289 121.082 52.95C120.954 51.6268 120.638 50.3288 120.143 49.0952C119.425 47.2499 118.427 45.5258 117.184 43.9842L119.511 46.3675C119.727 46.5935 119.934 46.8168 120.125 47.0508C122.979 50.381 123.883 54.6743 123.883 59.1423Z" fill="#A52A2A"/>
<path d="M121.01 55.5539C120.983 55.7691 120.942 55.9789 120.902 56.178C120.386 56.143 118.909 56.3501 117.214 57.332C116.029 58.0152 114.982 58.9158 114.131 59.987C112.837 61.601 106.624 68.6407 101.467 74.4619L99.5569 76.6139C99.276 76.9305 98.9296 77.1818 98.5414 77.3501C98.1532 77.5185 97.7331 77.6 97.3099 77.5887C96.8871 77.5774 96.4717 77.4736 96.0932 77.2848C95.7145 77.0959 95.3817 76.8267 95.1184 76.4955L82.4296 60.5976C81.5939 59.5405 81.1931 58.2041 81.309 56.8612C81.4252 55.5186 82.049 54.2708 83.0537 53.3723L94.4997 43.1503L94.957 42.771C95.1802 42.6069 95.4035 42.4482 95.6241 42.2949C102.777 37.7703 109.811 38.2437 114.992 41.7327L117.193 43.9896C118.435 45.5315 119.433 47.2552 120.152 49.1006C121.117 51.5673 121.292 53.6924 121.01 55.5539Z" fill="#A52A2A"/>
<path d="M117.187 43.9923L114.987 41.7353L114.863 41.6089C114.882 41.6173 114.899 41.6291 114.914 41.6439L115.121 41.8268C115.849 42.4665 116.521 43.1667 117.131 43.9196C117.147 43.9438 117.171 43.968 117.187 43.9923Z" fill="#3FBDF1"/>
<path d="M116.477 42.8544C116.496 42.8625 116.514 42.8743 116.528 42.8894C117.335 43.5786 118.077 44.3404 118.745 45.1651C118.761 45.1893 118.788 45.2135 118.804 45.2377L116.477 42.8544Z" fill="#3FBDF1"/>
<path d="M96.0677 80.5601C97.4127 79.0403 99.3576 76.856 101.448 74.4727C106.623 68.6515 112.837 61.601 114.131 59.987C116.821 56.6649 120.079 56.1161 120.902 56.1672" stroke="black" stroke-width="1.40149" stroke-linecap="round" stroke-linejoin="round"/>
<path d="M101.458 74.4727C101.55 74.5224 101.644 74.5671 101.741 74.6072C104.017 75.5191 106.642 74.938 108.466 73.2945C110.384 71.5675 111.987 70.2548 112.708 70.5291C113.897 70.9676 114.053 70.9676 114.785 67.1155C115.323 64.3421 119.81 61.2755 120.891 56.178C121.313 54.1659 121.214 51.8417 120.135 49.1006C119.416 47.2555 118.418 45.532 117.176 43.9896C117.157 43.9654 117.133 43.9412 117.117 43.917C116.449 43.0925 115.707 42.3307 114.9 41.6412C114.886 41.6264 114.868 41.6146 114.849 41.6063C109.184 36.7992 100.681 35.9357 92.2264 42.2788C92.0757 42.3971 91.9278 42.5209 91.7852 42.6446L80.342 52.8666C79.3372 53.7632 78.7132 55.0097 78.5969 56.3512C78.481 57.693 78.8821 59.028 79.7179 60.0839L96.0542 80.5467" stroke="black" stroke-width="1.40149" stroke-linecap="round" stroke-linejoin="round"/>
<path d="M113.448 60.9608C113.448 60.9608 114.588 60.7913 115.731 61.8296" stroke="black" stroke-width="1.40149" stroke-linecap="round" stroke-linejoin="round"/>
<path d="M113.275 63.6699C113.721 63.1502 113.818 62.5021 113.492 62.2224C113.166 61.9429 112.541 62.1376 112.095 62.6573C111.649 63.1771 111.551 63.8251 111.877 64.1048C112.203 64.3843 112.829 64.1896 113.275 63.6699Z" fill="black"/>
<path d="M114.863 41.6089L117.19 43.9923L119.514 46.3756C122.844 49.7892 123.883 54.3676 123.883 59.1423V77.1465C123.886 78.7027 123.426 80.2247 122.56 81.5183C121.695 82.8119 120.464 83.8182 119.024 84.4095C115.197 85.9697 110.129 87.7236 101.749 88.0222V74.6072" stroke="black" stroke-width="1.40149" stroke-linecap="round" stroke-linejoin="round"/>
<path d="M109.602 72.3045C109.602 72.3045 107.737 72.9313 107.181 70.4403" stroke="black" stroke-width="1.40149" stroke-linecap="round" stroke-linejoin="round"/>
<path d="M86.5505 68.6407L84.2747 71.3899C84.0751 71.6296 83.8196 71.8166 83.5304 71.9338C83.2415 72.0511 82.9278 72.0952 82.6177 72.0624C81.0629 71.9118 79.5054 71.8418 77.9532 71.8418C54.483 71.8418 39.0693 114.357 65.0574 116.205C90.529 118.01 100.651 116.897 102.448 130.131C102.871 133.249 104.759 136.318 108.296 135.127C112.703 133.65 115.498 128.326 114.798 123.85C114.085 119.299 110.65 115.492 107.172 112.727C100.334 107.312 91.9654 105.012 83.5673 103.312C80.845 102.774 72.1886 102.053 74.9324 97.378" stroke="black" stroke-width="1.40149" stroke-linecap="round" stroke-linejoin="round"/>
<path d="M111.92 142.613H111.183V141.698H111.92C112.17 141.698 112.409 141.599 112.586 141.423C112.763 141.246 112.862 141.007 112.862 140.757V134.481L119.468 131.651V138.645C119.468 139.145 119.27 139.624 118.917 139.977C118.564 140.33 118.085 140.528 117.585 140.528H116.722V139.611H117.585C117.841 139.611 118.087 139.509 118.268 139.328C118.449 139.147 118.551 138.901 118.551 138.645V133.037L113.787 135.086V140.757C113.787 141.001 113.738 141.244 113.644 141.469C113.55 141.695 113.412 141.9 113.239 142.072C113.066 142.245 112.86 142.381 112.634 142.474C112.407 142.567 112.165 142.614 111.92 142.613Z" fill="#D7E8F0"/>
<path d="M110.702 143.148C111.25 143.148 111.694 142.704 111.694 142.156C111.694 141.608 111.25 141.163 110.702 141.163C110.153 141.163 109.709 141.608 109.709 142.156C109.709 142.704 110.153 143.148 110.702 143.148Z" fill="#D7E8F0"/>
<path d="M116.749 141.166C117.297 141.166 117.741 140.721 117.741 140.173C117.741 139.625 117.297 139.181 116.749 139.181C116.2 139.181 115.756 139.625 115.756 140.173C115.756 140.721 116.2 141.166 116.749 141.166Z" fill="#D7E8F0"/>
<g opacity="0.54">
<path d="M172.455 86.2575L171.312 86.7364L170.715 85.3133L171.861 84.8345C172.249 84.6718 172.557 84.3616 172.716 83.9721C172.875 83.5829 172.874 83.146 172.711 82.7578L168.367 72.3825L169.545 72.4013C169.744 72.4013 174.446 72.5278 177.373 76.4363L176.138 77.3617C174.508 75.1909 172.176 74.4027 170.758 74.1176L174.131 82.1876C174.444 82.9499 174.443 83.8048 174.129 84.5666C173.815 85.3287 173.214 85.9361 172.455 86.2575Z" fill="#228B22" fill-opacity="0.5"/>
<path d="M170.263 88.0114C171.186 88.0114 171.934 87.2633 171.934 86.3409C171.934 85.4183 171.186 84.6704 170.263 84.6704C169.341 84.6704 168.593 85.4183 168.593 86.3409C168.593 87.2633 169.341 88.0114 170.263 88.0114Z" fill="#228B22" fill-opacity="0.5"/>
</g>
<g opacity="0.46">
<path d="M133.962 95.729H132.717V94.1823H133.962C134.384 94.1815 134.789 94.0136 135.087 93.715C135.386 93.4167 135.554 93.0119 135.555 92.5898V81.9778L146.726 77.203V89.039C146.725 89.8823 146.389 90.6907 145.793 91.2868C145.196 91.8829 144.387 92.2178 143.544 92.2186H142.083V90.653H143.544C143.758 90.653 143.971 90.6108 144.169 90.5287C144.367 90.4467 144.547 90.3264 144.699 90.1747C144.85 90.023 144.971 89.843 145.053 89.6451C145.135 89.4468 145.177 89.2346 145.177 89.0202V79.5352L137.107 82.9999V92.5898C137.107 93.0025 137.025 93.4108 136.867 93.792C136.708 94.1731 136.477 94.5191 136.185 94.8107C135.893 95.1023 135.546 95.3333 135.165 95.491C134.784 95.6486 134.375 95.7293 133.962 95.729Z" fill="#228B22" fill-opacity="0.5"/>
<path d="M131.896 96.6302C132.822 96.6302 133.572 95.8797 133.572 94.9543C133.572 94.0287 132.822 93.2784 131.896 93.2784C130.97 93.2784 130.22 94.0287 130.22 94.9543C130.22 95.8797 130.97 96.6302 131.896 96.6302Z" fill="#228B22" fill-opacity="0.5"/>
<path d="M142.126 93.2784C143.052 93.2784 143.802 92.5282 143.802 91.6026C143.802 90.6769 143.052 89.9267 142.126 89.9267C141.201 89.9267 140.451 90.6769 140.451 91.6026C140.451 92.5282 141.201 93.2784 142.126 93.2784Z" fill="#228B22" fill-opacity="0.5"/>
</g>
<path d="M183.52 108.176L183.009 108.778L182.261 108.138L182.772 107.535C182.858 107.435 182.924 107.318 182.964 107.191C183.005 107.065 183.02 106.932 183.01 106.8C182.999 106.668 182.962 106.539 182.902 106.421C182.841 106.303 182.758 106.198 182.657 106.112L177.524 101.755L179.797 94.3813L185.519 99.2395C185.927 99.5865 186.18 100.081 186.224 100.614C186.268 101.148 186.099 101.677 185.753 102.086L185.15 102.793L184.403 102.155L185.002 101.451C185.091 101.347 185.158 101.227 185.199 101.097C185.241 100.968 185.257 100.831 185.246 100.696C185.235 100.56 185.197 100.428 185.135 100.307C185.073 100.186 184.988 100.078 184.884 99.99L180.311 96.0949L178.667 101.424L183.305 105.362C183.504 105.532 183.668 105.741 183.786 105.974C183.905 106.208 183.976 106.463 183.996 106.724C184.016 106.986 183.984 107.248 183.903 107.498C183.821 107.747 183.691 107.977 183.52 108.176Z" fill="#228B22" fill-opacity="0.5"/>
<path d="M182.298 109.919C182.885 109.919 183.361 109.443 183.361 108.856C183.361 108.269 182.885 107.794 182.298 107.794C181.711 107.794 181.236 108.269 181.236 108.856C181.236 109.443 181.711 109.919 182.298 109.919Z" fill="#228B22" fill-opacity="0.5"/>
<path d="M184.878 103.592C185.465 103.592 185.94 103.116 185.94 102.529C185.94 101.943 185.465 101.467 184.878 101.467C184.291 101.467 183.815 101.943 183.815 102.529C183.815 103.116 184.291 103.592 184.878 103.592Z" fill="#228B22" fill-opacity="0.5"/>
<path d="M203.479 123.635L201.986 123.135L202.611 121.276L204.103 121.779C204.354 121.863 204.619 121.898 204.883 121.88C205.147 121.862 205.405 121.792 205.642 121.674C205.879 121.557 206.091 121.394 206.265 121.194C206.439 120.995 206.572 120.763 206.656 120.512L210.939 107.783L226.272 106.548L221.497 120.743C221.154 121.756 220.424 122.592 219.465 123.067C218.507 123.541 217.399 123.616 216.386 123.275L214.662 122.686L215.286 120.827L217.04 121.419C217.559 121.592 218.127 121.553 218.618 121.309C219.109 121.066 219.483 120.638 219.66 120.119L223.488 108.741L212.394 109.634L208.523 121.139C208.356 121.634 208.093 122.091 207.749 122.485C207.405 122.878 206.987 123.2 206.518 123.432C206.05 123.664 205.54 123.801 205.019 123.836C204.498 123.871 203.974 123.802 203.479 123.635Z" fill="#228B22" fill-opacity="0.5"/>
<path d="M201.317 123.998C202.489 123.998 203.439 123.048 203.439 121.876C203.439 120.704 202.489 119.753 201.317 119.753C200.145 119.753 199.195 120.704 199.195 121.876C199.195 123.048 200.145 123.998 201.317 123.998Z" fill="#228B22" fill-opacity="0.5"/>
<path d="M214.944 124.106C216.117 124.106 217.067 123.156 217.067 121.983C217.067 120.811 216.117 119.861 214.944 119.861C213.772 119.861 212.822 120.811 212.822 121.983C212.822 123.156 213.772 124.106 214.944 124.106Z" fill="#228B22" fill-opacity="0.5"/>
<path d="M168.198 125.623L167.369 125.166L167.937 124.135L168.765 124.593C169.046 124.748 169.377 124.785 169.685 124.696C169.993 124.607 170.254 124.4 170.409 124.119L174.552 116.612L175.09 117.327C175.181 117.448 177.333 120.316 176.392 123.907L175.254 123.606C175.637 122.002 175.421 120.313 174.646 118.858L171.418 124.687C171.112 125.235 170.602 125.64 170 125.815C169.397 125.99 168.75 125.921 168.198 125.623Z" fill="#228B22" fill-opacity="0.5"/>
<path d="M167.11 125.623C167.815 125.623 168.385 125.052 168.385 124.348C168.385 123.644 167.815 123.073 167.11 123.073C166.406 123.073 165.835 123.644 165.835 124.348C165.835 125.052 166.406 125.623 167.11 125.623Z" fill="#228B22" fill-opacity="0.5"/>
<g opacity="0.56">
<path d="M145.736 131.199L144.609 131.737L143.756 129.927C143.216 130.226 142.62 130.41 142.005 130.465C141.49 130.51 140.972 130.426 140.498 130.22C140.024 130.014 139.609 129.694 139.291 129.287C138.723 128.593 138.365 127.673 138.199 126.462C137.87 124.1 138.344 121.763 138.968 119.764L138.266 118.263C138.061 117.833 137.728 117.112 137.997 116.38C138.099 116.141 138.257 115.93 138.459 115.765C138.66 115.601 138.898 115.487 139.153 115.434C139.407 115.382 139.671 115.391 139.921 115.462C140.172 115.533 140.401 115.664 140.59 115.842C141.397 116.698 140.932 117.959 140.73 118.497C140.593 118.871 140.461 119.267 140.316 119.678L142.255 123.799C143.331 123.043 144.832 123.283 145.765 124.353C146.621 125.332 146.667 126.683 145.889 127.963C145.599 128.436 145.236 128.86 144.813 129.22L145.736 131.199ZM139.78 121.483C139.366 123.048 139.248 124.677 139.433 126.285C139.568 127.256 139.837 127.977 140.256 128.488C140.45 128.738 140.703 128.936 140.993 129.062C141.284 129.189 141.601 129.24 141.916 129.211C142.377 129.167 142.823 129.026 143.226 128.797L142.129 126.465C142.107 126.578 142.088 126.696 142.075 126.817L140.835 126.672C140.906 126.036 141.088 125.417 141.373 124.843L139.78 121.483ZM142.796 124.956L144.243 128.044C144.461 127.827 144.653 127.584 144.813 127.32C145.045 126.941 145.51 125.975 144.813 125.168C144.375 124.668 143.584 124.361 142.957 124.819C142.899 124.859 142.845 124.905 142.796 124.956ZM139.299 116.676C139.269 116.687 139.242 116.704 139.219 116.726C139.196 116.748 139.177 116.774 139.164 116.802C139.081 117.028 139.24 117.4 139.396 117.731L139.552 118.064C139.721 117.604 139.92 116.961 139.675 116.703C139.637 116.674 139.594 116.654 139.547 116.645C139.5 116.636 139.452 116.637 139.406 116.649C139.368 116.653 139.331 116.662 139.296 116.676H139.299Z" fill="#228B22" fill-opacity="0.5"/>
</g>
<path d="M196.153 97.6847L194.808 96.7028L196.376 94.5508C195.685 94.107 195.094 93.5243 194.641 92.84C194.26 92.267 194.029 91.6082 193.968 90.9236C193.906 90.2388 194.017 89.5493 194.288 88.918C194.738 87.8124 195.59 86.8063 196.892 85.8433C199.445 83.9603 202.48 83.0215 205.213 82.4754L206.509 80.7054C206.886 80.1916 207.513 79.3362 208.537 79.1802C208.883 79.143 209.233 79.1912 209.556 79.3203C209.88 79.4494 210.166 79.6555 210.392 79.9204C210.617 80.1857 210.774 80.502 210.85 80.8418C210.925 81.1815 210.916 81.5345 210.824 81.8702C210.342 83.3604 208.567 83.616 207.811 83.7263C207.273 83.8016 206.735 83.8877 206.168 83.9953L202.584 88.8884C204.15 89.6631 204.831 91.5784 204.174 93.343C203.572 94.957 202.022 95.8824 200.029 95.7855C199.292 95.7454 198.566 95.5902 197.877 95.3255L196.153 97.6847ZM203.717 84.536C201.707 85.074 199.65 85.881 197.885 87.1883C196.836 87.963 196.166 88.735 195.835 89.5528C195.664 89.9377 195.594 90.3598 195.631 90.7794C195.667 91.1991 195.81 91.6026 196.045 91.9523C196.389 92.4631 196.837 92.8951 197.36 93.2193L199.389 90.4513C199.243 90.4997 199.096 90.5535 198.945 90.6127L198.326 89.0713C199.112 88.7493 199.949 88.5672 200.798 88.5333L203.717 84.536ZM201.578 90.271L198.907 93.9214C199.3 94.0362 199.706 94.1056 200.115 94.1285C200.707 94.1554 202.135 94.0801 202.622 92.7673C202.929 91.9388 202.77 90.8252 201.847 90.3733C201.76 90.3321 201.67 90.2979 201.578 90.271ZM209.03 80.9071C208.964 80.8536 208.88 80.8256 208.796 80.8291C208.478 80.8776 208.145 81.2999 207.857 81.6926L207.569 82.0881C208.215 81.9966 209.092 81.8191 209.239 81.3671C209.249 81.302 209.243 81.2353 209.223 81.1729C209.202 81.1102 209.167 81.0535 209.121 81.0067C209.094 80.9704 209.063 80.9373 209.03 80.9071Z" fill="#228B22" fill-opacity="0.5"/>
</svg>
