<svg width="355" height="272" viewBox="0 0 355 272" fill="none" xmlns="http://www.w3.org/2000/svg">
<path d="M331 48C344.255 48 355 37.2548 355 24C355 10.7452 344.255 0 331 0C317.745 0 307 10.7452 307 24C307 37.2548 317.745 48 331 48Z" fill="#A52A2A" fill-opacity="0.7"/>
<path d="M331 6.33963C331.75 6.33963 332.358 5.73141 332.358 4.98114C332.358 4.23087 331.75 3.62265 331 3.62265C330.25 3.62265 329.641 4.23087 329.641 4.98114C329.641 5.73141 330.25 6.33963 331 6.33963Z" fill="white" fill-opacity="0.9"/>
<path d="M311.981 25.3585C312.731 25.3585 313.34 24.7503 313.34 24C313.34 23.2497 312.731 22.6415 311.981 22.6415C311.231 22.6415 310.623 23.2497 310.623 24C310.623 24.7503 311.231 25.3585 311.981 25.3585Z" fill="white" fill-opacity="0.9"/>
<path d="M350.019 25.3585C350.769 25.3585 351.377 24.7503 351.377 24C351.377 23.2497 350.769 22.6415 350.019 22.6415C349.269 22.6415 348.66 23.2497 348.66 24C348.66 24.7503 349.269 25.3585 350.019 25.3585Z" fill="white" fill-opacity="0.9"/>
<path d="M331 44.3773C331.75 44.3773 332.358 43.7691 332.358 43.0189C332.358 42.2686 331.75 41.6604 331 41.6604C330.25 41.6604 329.641 42.2686 329.641 43.0189C329.641 43.7691 330.25 44.3773 331 44.3773Z" fill="white" fill-opacity="0.9"/>
<path fill-rule="evenodd" clip-rule="evenodd" d="M331 7.69812L331.906 23.5472H330.094L331 7.69812Z" fill="#AFB9C5"/>
<path fill-rule="evenodd" clip-rule="evenodd" d="M339.014 32.0144L330.689 24.97L331.97 23.6892L339.014 32.0144Z" fill="#AFB9C5"/>
<path d="M331 25.8113C332 25.8113 332.811 25.0004 332.811 24C332.811 22.9996 332 22.1887 331 22.1887C330 22.1887 329.189 22.9996 329.189 24C329.189 25.0004 330 25.8113 331 25.8113Z" fill="#C5CFD6"/>
<g opacity="0.5" clip-path="url(#clip0_0_1)">
<path fill-rule="evenodd" clip-rule="evenodd" d="M76.3949 146.919C75.3331 143.393 72.84 140.633 70.2519 138.104C65.2137 133.181 62.504 130.137 60.7083 122.935C59.6524 118.7 58.5776 114.211 55.2282 111.138C52.7895 108.901 48.5921 107.02 45.3306 108.623C40.3131 111.605 38.9657 117.723 39.4716 123.202C40.0988 129.993 43.2849 134.181 49.4058 136.682C52.8547 138.091 55.1473 139.949 57.0195 143.188C58.517 145.778 59.3902 149.021 61.272 151.369C64.0855 154.879 67.6062 156.439 71.9459 155.856C67.8812 148.41 63.132 140.895 57.4038 134.626C56.8677 133.995 53.7051 131.583 54.3429 130.509C55.0456 129.326 58.2923 133.769 58.2693 133.742C59.9339 135.644 61.4743 137.666 62.987 139.707C62.9831 139.709 62.9786 139.71 62.9744 139.712C64.5318 141.807 66.0768 143.932 67.5923 146.084C68.2052 146.994 68.8018 147.916 69.3729 148.861C70.2109 150.247 71.5409 154.183 72.9124 155.036C73.2058 155.218 73.4771 155.32 73.7307 155.362C74.6663 156.887 75.5768 158.425 76.4427 159.981C78.704 164.044 80.6448 168.334 81.5357 172.921C81.7956 174.26 81.6116 179.269 82.5296 180.235C84.208 182.003 83.7163 178.599 83.616 177.571C82.7823 169.061 79.7139 161.812 75.2586 154.657C76.6273 152.878 76.8249 148.348 76.3949 146.919Z" fill="#228B22"/>
<path fill-rule="evenodd" clip-rule="evenodd" d="M18.9109 151.031C20.6803 148.955 24.9338 148.603 27.5352 148.742C30.7541 148.914 34.0604 149.694 37.1229 150.638C42.1678 152.191 47.0698 155.027 51.5128 157.771C52.0483 158.102 58.6449 162.052 58.0609 162.745C57.4825 163.432 51.0067 158.74 49.5635 157.931C46.4838 156.205 43.6594 154.164 40.2646 153.024C36.7496 151.844 33.0322 151.377 29.336 151.409C28.8616 151.413 27.3142 151.084 27.2808 151.783C27.2481 152.466 29.8085 152.109 30.26 152.113C32.1247 152.131 34.001 152.305 35.8393 152.627C39.2835 153.23 42.5215 154.444 45.4713 156.307C44.6483 158.212 42.6751 159.09 40.6053 158.614C38.8163 158.201 37.0724 157.185 35.3207 156.891C34.1143 156.688 32.9063 156.809 31.7364 157.147C28.6505 158.04 26.8707 159.869 23.4778 158.597C20.818 157.6 16.3698 154.016 18.9109 151.031Z" fill="#228B22"/>
<path fill-rule="evenodd" clip-rule="evenodd" d="M20.9121 131.388H21.7492C21.6906 130.331 21.6142 129.275 21.4347 128.229C20.7618 124.309 18.6578 118.551 14.0433 117.915C13.8731 117.891 13.2469 117.887 12.4883 117.931C12.1288 117.733 11.7261 117.614 11.3018 117.586C7.37297 117.301 2.98545 120.423 1.09034 123.671C-0.437396 126.291 -0.180027 129.73 0.763595 132.513C1.39548 134.376 2.77458 137.032 5.07442 137.058C7.95178 137.09 8.09053 133.588 8.14618 131.54C8.22013 128.818 8.56939 126.446 10.7473 124.591C11.2549 124.158 11.8097 123.778 12.3225 123.352C13.1253 122.685 14.0126 122.001 14.116 120.898C14.2588 119.375 13.386 119.101 12.0534 119.384C11.8262 119.432 9.5379 120.443 9.87673 119.644C9.98015 119.4 10.358 119.206 10.8348 119.061C12.0688 118.929 13.5403 118.776 13.9635 118.867C18.5291 119.854 20.3067 126.083 20.7788 130.04C20.8323 130.488 20.875 130.938 20.9121 131.388H20.9121Z" fill="#228B22"/>
</g>
<path d="M233.081 183.706C232.752 183.667 232.426 183.612 232.102 183.539" stroke="#CCDDE2" stroke-width="1.40149" stroke-miterlimit="10"/>
<path d="M101.408 80.6092C101.408 80.6092 90.7237 27.7049 139.23 17.3888C142.085 16.7716 144.997 16.4569 147.919 16.45C157.191 16.45 165.713 19.8744 172.841 26.7554C176.971 30.75 179.817 35.6324 182.891 40.3237C184.82 43.2827 186.854 46.161 189.347 48.7219C196.239 55.7993 205.576 58.8094 214.655 62.1719C222.639 65.1121 230.418 68.3293 236.142 74.8149C243.427 83.0571 250.937 91.7431 254.787 102.215C256.385 106.601 257.604 111.116 258.429 115.711C260.514 127.143 260.597 138.821 258.069 150.181C255.336 162.477 248.196 174.054 238.808 182.388" stroke="#CCDDE2" stroke-width="1.40149" stroke-miterlimit="10"/>
<path d="M241.23 167.335L238.596 182.063C238.523 182.475 238.306 182.849 237.985 183.119C237.663 183.388 237.257 183.535 236.837 183.534H223.072C222.649 183.534 222.239 183.384 221.916 183.11C221.592 182.836 221.377 182.456 221.308 182.038L218.887 167.335H241.23Z" stroke="#CCDDE2" stroke-width="1.40149" stroke-miterlimit="10"/>
<path d="M243.734 165.691C243.697 166.139 243.494 166.557 243.163 166.861C242.833 167.166 242.4 167.335 241.95 167.335H218.203C217.759 167.335 217.331 167.17 217.002 166.871C216.674 166.573 216.468 166.163 216.425 165.721C216.401 165.473 216.428 165.222 216.507 164.985C216.585 164.749 216.712 164.531 216.879 164.346C217.047 164.161 217.251 164.014 217.479 163.913C217.707 163.812 217.954 163.76 218.203 163.76H241.95C242.197 163.76 242.441 163.811 242.667 163.911C242.893 164.01 243.097 164.155 243.264 164.336C243.432 164.517 243.56 164.731 243.641 164.965C243.721 165.198 243.753 165.445 243.734 165.691Z" stroke="#CCDDE2" stroke-width="1.40149" stroke-miterlimit="10"/>
<path d="M230.819 163.757C230.819 163.004 232.737 153.608 231.147 145.274C230.276 140.701 228.347 136.454 224.471 134.127" stroke="#CCDDE2" stroke-width="1.40149" stroke-miterlimit="10"/>
<path d="M231.142 145.274C231.142 145.274 231.58 138.945 237.06 138.506" stroke="#CCDDE2" stroke-width="1.40149" stroke-miterlimit="10"/>
<path d="M231.728 154.934C233.286 153.844 235.161 153.302 237.06 153.395" stroke="#CCDDE2" stroke-width="1.40149" stroke-miterlimit="10"/>
<path d="M231.729 150.439C231.729 150.439 227.756 145.731 221.404 149.454" stroke="#CCDDE2" stroke-width="1.40149" stroke-miterlimit="10"/>
<path d="M228.931 148.545C228.931 148.545 219.981 140.368 218.23 151.423C218.23 151.423 220.748 153.067 224.471 151.423C228.194 149.78 228.931 148.545 228.931 148.545Z" stroke="#CCDDE2" stroke-width="1.40149" stroke-miterlimit="10"/>
<path d="M233.117 140.435C233.117 140.435 232.791 136.755 237.06 135.55C241.329 134.345 243.74 139.383 243.74 139.383C243.74 139.383 240.45 143.02 233.117 140.435Z" stroke="#CCDDE2" stroke-width="1.40149" stroke-miterlimit="10"/>
<path d="M234.102 153.39C234.102 153.39 233.956 149.67 238.919 150.431C243.882 151.192 244.687 155.432 244.687 155.432C244.687 155.432 236.555 158.412 234.102 153.775" stroke="#CCDDE2" stroke-width="1.40149" stroke-miterlimit="10"/>
<path d="M228.124 137.567C228.124 137.836 224.39 137.234 224.154 137.164C222.346 136.626 221.063 135.372 220.218 133.715C219.949 133.201 218.454 130.32 218.873 129.82C218.879 129.82 227.758 126.963 228.124 137.567Z" stroke="#CCDDE2" stroke-width="1.40149" stroke-miterlimit="10"/>
<path d="M204.169 95.6624L196.287 104.472H190.88L182.689 109.704C181.003 109.401 179.273 109.454 177.608 109.859C175.944 110.263 174.382 111.012 173.024 112.055C169.444 114.745 158.412 125.651 152.817 126.85C151.472 123.641 149.742 120.577 148.782 119.216L187.921 100.386L189.715 95.6624L201.065 91.0894L204.169 95.6624Z" fill="#D7E8F0"/>
<path d="M146.224 183.577L129.769 183.453C124.132 183.414 118.612 181.833 113.81 178.88C117.187 178.876 120.555 178.516 123.857 177.804C124.085 177.804 124.322 177.804 124.559 177.804C128.416 177.64 131.822 175.028 134.06 171.886C136.298 168.744 137.651 165.067 139.3 161.567C140.949 158.068 143.036 154.614 146.275 152.499C146.585 152.295 146.905 152.109 147.225 151.932C152.112 151.618 157.014 151.591 161.904 151.851C157.541 153.909 142.262 162.635 146.224 183.577Z" fill="#A52A2A" fill-opacity="0.8"/>
<path d="M164.382 140.4C164.382 140.4 162.768 145.314 167.893 147.241C173.017 149.167 172.552 147.165 172.546 150.595C172.546 150.595 173.579 152.08 171.449 152.128C169.318 152.177 160.804 150.842 157.579 151.267C154.354 151.692 148.433 151.432 154.19 149.74C159.946 148.048 163.704 145.258 164.382 140.4Z" fill="#A52A2A"/>
<path d="M134.278 123.369C135.259 123.643 136.136 124.205 136.793 124.983C137.993 126.328 139.954 127.889 140.263 131.945C140.573 136.002 142.235 137.261 142.601 137.61C142.967 137.96 142.698 139.224 140.298 139.001C137.899 138.778 130.91 137.683 131.22 129.481C131.22 129.47 131.01 124.784 134.278 123.369Z" fill="#2E2E2E"/>
<path d="M124.475 177.979C121.173 178.691 117.806 179.051 114.428 179.055C114.385 179.023 114.334 179.004 114.293 178.972C111.474 178.901 108.665 178.598 105.895 178.065C94.8044 175.948 65.661 129.266 90.4197 114.823C90.4197 114.823 91.1729 114.595 92.4722 114.285C93.8871 116.08 95.8562 117.481 98.4359 118.339C97.4468 119.205 96.5919 120.213 95.8993 121.33C93.9678 124.427 93.4944 128.222 93.6181 131.875C93.8656 139.612 96.5476 147.082 100.004 154.014C103.945 161.928 109.083 169.479 116.263 174.638C118.7 176.371 121.503 177.877 124.475 177.979Z" fill="#228B22" fill-opacity="0.4"/>
<path d="M105.729 77.6071C105.729 77.6071 105.594 78.2581 107.283 78.3792C108.973 78.5002 116.142 78.8257 116.916 86.7182C117.691 94.6106 113.538 104.553 115.969 105.15C118.401 105.747 123.679 107.141 125.239 106.172C126.799 105.204 135.461 99.649 145.183 103.407C145.183 103.407 146.716 104.908 146.754 100.663C146.791 96.4183 147.348 89.548 144.424 90.4895C141.5 91.431 139.582 89.8413 138.735 93.5615C137.888 97.2818 130.417 94.0538 130.417 94.0538C130.417 94.0538 125.715 90.156 123.168 82.624C120.62 75.092 114.127 75.2265 112.012 75.5305C109.898 75.8344 105.729 77.6071 105.729 77.6071Z" fill="#228B22"/>
<path d="M216.866 242.41C215.029 241.409 215.069 239.989 214.028 238.738L212.513 241.942C212.374 242.697 212.459 243.477 212.757 244.185C213.056 244.892 213.556 245.497 214.195 245.923L228.613 258.058C229.044 258.348 229.545 258.516 230.064 258.543C230.583 258.57 231.099 258.455 231.558 258.212C232.016 257.968 232.4 257.604 232.668 257.159C232.936 256.714 233.078 256.205 233.078 255.685C233.08 255.372 233.028 255.061 232.925 254.765L204.295 169.683C203.505 167.331 202.258 165.157 200.626 163.288C198.994 161.418 197.008 159.889 194.784 158.789C186.757 154.807 170.617 149.769 148.68 151.687" stroke="black" stroke-width="1.40149" stroke-linecap="round" stroke-linejoin="round"/>
<path d="M214.028 238.746C203.928 224.941 189.281 202.038 186.459 193.226C183.5 184.045 175.204 183.685 167.188 183.881L130.388 183.612C124.698 183.577 119.129 181.97 114.294 178.969" stroke="black" stroke-width="1.40149" stroke-linecap="round" stroke-linejoin="round"/>
<path d="M193.248 158.057C193.186 150.321 193.227 134.654 193.267 122.28C193.299 111.84 181.353 105.753 173.017 112.058C169.396 114.78 165.383 117.578 161.038 122.301" stroke="black" stroke-width="1.40149" stroke-linecap="round" stroke-linejoin="round"/>
<path d="M173.893 139.838C173.893 139.838 171.693 146.008 172.769 152.311" stroke="black" stroke-width="1.40149" stroke-linecap="round" stroke-linejoin="round"/>
<path d="M142.292 102.925H142.262C134.155 101.459 128.274 103.821 124.261 106.877" stroke="black" stroke-width="1.40149" stroke-linecap="round" stroke-linejoin="round"/>
<path d="M92.4728 114.275C91.1735 114.592 90.4203 114.813 90.4203 114.813C65.6723 129.255 94.805 175.937 105.896 178.054C108.665 178.587 111.474 178.89 114.294 178.961C120.906 179.147 125.24 178.001 125.24 178.001" stroke="black" stroke-width="1.40149" stroke-linecap="round" stroke-linejoin="round"/>
<path d="M110.022 127.2L125.239 159.181L128.526 154.797L114.697 127.2H110.022Z" stroke="black" stroke-width="1.40149" stroke-linecap="round" stroke-linejoin="round"/>
<path d="M118.089 133.968L132.274 127.149V127.138L136.793 124.973" stroke="black" stroke-width="1.40149" stroke-linecap="round" stroke-linejoin="round"/>
<path d="M182.681 109.704L190.883 104.472H196.29L204.172 95.6624L201.068 91.0921L189.718 95.6624L187.913 100.378L148.771 119.216" stroke="black" stroke-width="1.40149" stroke-linecap="round" stroke-linejoin="round"/>
<path d="M153.455 127.375L161.038 122.299" stroke="black" stroke-width="1.40149" stroke-linecap="round" stroke-linejoin="round"/>
<path d="M141.116 135.628L136.971 138.404L124.497 146.751" stroke="black" stroke-width="1.40149" stroke-linecap="round" stroke-linejoin="round"/>
<path d="M154.641 111.168C154.444 104.927 151.875 98.6537 149.349 93.0316C148.909 92.0492 148.42 91.0894 147.883 90.156" stroke="black" stroke-width="1.40149" stroke-linecap="round" stroke-linejoin="round"/>
<path d="M136.97 79.8883C139.147 86.2232 142.149 98.0861 132.976 95.2213C120.602 91.353 127.044 72.3912 110.022 75.8156C109.985 75.8261 109.947 75.8325 109.909 75.8344C109.902 75.8323 109.895 75.8323 109.888 75.8344H109.866" stroke="black" stroke-width="1.40149" stroke-linecap="round" stroke-linejoin="round"/>
<path d="M104.327 78.6078C111.001 77.5668 122.216 79.1136 114.695 104.461" stroke="black" stroke-width="1.40149" stroke-linecap="round" stroke-linejoin="round"/>
<path d="M146.367 103.905C147.142 99.4494 146.981 94.8815 145.893 90.4922" stroke="black" stroke-width="1.40149" stroke-linecap="round" stroke-linejoin="round"/>
<path d="M172.468 148.018C172.468 148.018 163.37 147.835 163.822 142.573" stroke="black" stroke-width="1.40149" stroke-linecap="round" stroke-linejoin="round"/>
<path d="M163.669 151.534C163.669 151.534 142.23 159.364 146.846 183.733" stroke="black" stroke-width="1.40149" stroke-linecap="round" stroke-linejoin="round"/>
<path d="M134.278 123.369C133.022 124.221 132.091 125.472 131.637 126.92C131.013 129.05 131.139 131.33 131.994 133.379C132.848 135.427 134.379 137.121 136.331 138.178C138.157 139.106 140.202 139.27 142.036 138.466C142.364 138.32 142.675 138.139 142.964 137.928" stroke="black" stroke-width="1.40149" stroke-linecap="round" stroke-linejoin="round"/>
<path d="M161.035 122.299C162.086 124.755 162.951 127.286 163.623 129.871C163.654 129.959 163.678 130.049 163.695 130.14C163.8 130.544 163.892 130.947 163.986 131.367C164.088 131.854 164.19 132.327 164.284 132.811C164.306 132.967 164.336 133.121 164.357 133.277C164.361 133.304 164.361 133.333 164.357 133.36C164.376 133.473 164.397 133.586 164.419 133.71C164.438 133.906 164.47 134.113 164.51 134.328C164.505 134.352 164.505 134.377 164.51 134.401" stroke="black" stroke-width="1.40149" stroke-linecap="round" stroke-linejoin="round"/>
<path d="M130.415 108.448C133.643 105.365 137.896 102.869 142.251 102.92H142.281C142.622 102.92 142.983 102.939 143.325 102.982C146.232 103.291 148.705 105.22 150.792 107.262C153.226 109.638 155.383 112.283 157.221 115.146" stroke="black" stroke-width="1.40149" stroke-linecap="round" stroke-linejoin="round"/>
<path d="M164.371 133.277C164.375 133.304 164.375 133.332 164.371 133.36C164.39 133.473 164.411 133.586 164.433 133.71C164.866 137.145 164.845 140.314 163.37 143.491C162.122 146.181 159.335 147.875 156.664 148.895C153.393 150.146 149.824 150.754 146.894 152.661C143.666 154.775 141.571 158.232 139.919 161.729C138.267 165.226 136.928 168.9 134.679 172.048C132.43 175.195 129.03 177.804 125.178 177.966C121.95 178.089 118.883 176.5 116.252 174.614C109.073 169.454 103.935 161.904 99.994 153.99C96.5374 147.058 93.8554 139.587 93.608 131.851C93.4842 128.198 93.9577 124.402 95.8891 121.306C96.5818 120.189 97.4366 119.181 98.4258 118.315" stroke="black" stroke-width="1.40149" stroke-linecap="round" stroke-linejoin="round"/>
<path d="M146.845 183.733H81.3922" stroke="black" stroke-width="1.40149" stroke-linecap="round" stroke-linejoin="round"/>
<path d="M248.267 183.733H209.063" stroke="black" stroke-width="1.40149" stroke-linecap="round" stroke-linejoin="round"/>
<path d="M161.883 62.1423V78.1371C161.886 79.6932 161.426 81.2152 160.56 82.5089C159.695 83.8025 158.464 84.8088 157.024 85.4001C153.197 86.9603 148.129 88.7142 139.749 89.0128V77.6072C142.025 78.5191 144.65 77.938 146.474 76.2944C146.864 75.9447 147.246 75.6058 147.604 75.3072C149.006 74.094 150.143 73.3112 150.716 73.5291C151.905 73.9676 152.061 73.9676 152.793 70.1155C153.331 67.3421 157.818 64.2755 158.899 59.178C159.122 58.1173 159.184 57.0289 159.082 55.95C158.954 54.6268 158.638 53.3288 158.143 52.0952C157.425 50.2499 156.427 48.5258 155.184 46.9842L157.511 49.3675C157.727 49.5935 157.934 49.8168 158.125 50.0508C160.979 53.381 161.883 57.6743 161.883 62.1423Z" fill="#A52A2A"/>
<path d="M159.01 58.5539C158.983 58.7691 158.942 58.9789 158.902 59.178C158.386 59.143 156.909 59.3501 155.214 60.332C154.029 61.0152 152.982 61.9158 152.131 62.987C150.837 64.601 144.624 71.6407 139.467 77.4619L137.557 79.6139C137.276 79.9305 136.93 80.1817 136.541 80.3501C136.153 80.5185 135.733 80.6 135.31 80.5887C134.887 80.5774 134.472 80.4736 134.093 80.2848C133.714 80.0959 133.382 79.8267 133.118 79.4955L120.43 63.5976C119.594 62.5405 119.193 61.2041 119.309 59.8612C119.425 58.5186 120.049 57.2708 121.054 56.3723L132.5 46.1503L132.957 45.771C133.18 45.6069 133.404 45.4482 133.624 45.2949C140.777 40.7703 147.811 41.2437 152.992 44.7327L155.193 46.9896C156.435 48.5315 157.433 50.2552 158.152 52.1006C159.117 54.5673 159.292 56.6924 159.01 58.5539Z" fill="#A52A2A"/>
<path d="M155.187 46.9923L152.987 44.7353L152.863 44.6089C152.882 44.6173 152.899 44.6291 152.914 44.6439L153.121 44.8268C153.849 45.4665 154.521 46.1667 155.131 46.9196C155.147 46.9438 155.171 46.968 155.187 46.9923Z" fill="#3FBDF1"/>
<path d="M154.477 45.8544C154.496 45.8625 154.514 45.8743 154.528 45.8894C155.335 46.5786 156.077 47.3404 156.745 48.1651C156.761 48.1893 156.788 48.2135 156.804 48.2377L154.477 45.8544Z" fill="#3FBDF1"/>
<path d="M134.068 83.5601C135.413 82.0403 137.358 79.856 139.448 77.4727C144.623 71.6515 150.837 64.601 152.131 62.987C154.821 59.6649 158.079 59.1161 158.902 59.1672" stroke="black" stroke-width="1.40149" stroke-linecap="round" stroke-linejoin="round"/>
<path d="M139.458 77.4727C139.55 77.5224 139.644 77.5671 139.741 77.6072C142.017 78.5191 144.642 77.938 146.466 76.2945C148.384 74.5675 149.987 73.2548 150.708 73.5291C151.897 73.9676 152.053 73.9676 152.785 70.1155C153.323 67.3421 157.81 64.2755 158.891 59.178C159.313 57.1659 159.214 54.8417 158.135 52.1006C157.416 50.2555 156.418 48.532 155.176 46.9896C155.157 46.9654 155.133 46.9412 155.117 46.917C154.449 46.0925 153.707 45.3307 152.9 44.6412C152.886 44.6264 152.868 44.6146 152.849 44.6063C147.184 39.7992 138.681 38.9357 130.226 45.2788C130.076 45.3971 129.928 45.5209 129.785 45.6446L118.342 55.8666C117.337 56.7632 116.713 58.0097 116.597 59.3512C116.481 60.693 116.882 62.028 117.718 63.0839L134.054 83.5467" stroke="black" stroke-width="1.40149" stroke-linecap="round" stroke-linejoin="round"/>
<path d="M151.448 63.9608C151.448 63.9608 152.588 63.7913 153.731 64.8296" stroke="black" stroke-width="1.40149" stroke-linecap="round" stroke-linejoin="round"/>
<path d="M151.275 66.6699C151.721 66.1502 151.818 65.5021 151.492 65.2224C151.166 64.9429 150.541 65.1376 150.095 65.6573C149.649 66.1771 149.551 66.8251 149.877 67.1048C150.203 67.3843 150.829 67.1896 151.275 66.6699Z" fill="black"/>
<path d="M152.863 44.6089L155.19 46.9923L157.514 49.3756C160.844 52.7892 161.883 57.3676 161.883 62.1423V80.1465C161.886 81.7027 161.426 83.2247 160.56 84.5183C159.695 85.8119 158.464 86.8182 157.024 87.4095C153.197 88.9697 148.129 90.7236 139.749 91.0222V77.6072" stroke="black" stroke-width="1.40149" stroke-linecap="round" stroke-linejoin="round"/>
<path d="M147.602 75.3045C147.602 75.3045 145.737 75.9313 145.181 73.4403" stroke="black" stroke-width="1.40149" stroke-linecap="round" stroke-linejoin="round"/>
<path d="M124.55 71.6407L122.275 74.3899C122.075 74.6296 121.82 74.8166 121.53 74.9338C121.242 75.0511 120.928 75.0952 120.618 75.0624C119.063 74.9118 117.505 74.8418 115.953 74.8418C92.483 74.8418 77.0693 117.357 103.057 119.205C128.529 121.01 138.651 119.897 140.448 133.131C140.871 136.249 142.759 139.318 146.296 138.127C150.703 136.65 153.498 131.326 152.798 126.85C152.085 122.299 148.65 118.492 145.172 115.727C138.334 110.312 129.965 108.012 121.567 106.312C118.845 105.774 110.189 105.053 112.932 100.378" stroke="black" stroke-width="1.40149" stroke-linecap="round" stroke-linejoin="round"/>
<path d="M149.92 145.613H149.183V144.698H149.92C150.17 144.698 150.409 144.599 150.586 144.423C150.763 144.246 150.862 144.007 150.862 143.757V137.481L157.468 134.651V141.645C157.468 142.145 157.27 142.624 156.917 142.977C156.564 143.33 156.085 143.528 155.585 143.528H154.722V142.611H155.585C155.841 142.611 156.087 142.509 156.268 142.328C156.449 142.147 156.551 141.901 156.551 141.645V136.037L151.787 138.086V143.757C151.787 144.001 151.738 144.244 151.644 144.469C151.55 144.695 151.412 144.9 151.239 145.072C151.066 145.245 150.86 145.381 150.634 145.474C150.407 145.567 150.165 145.614 149.92 145.613Z" fill="#D7E8F0"/>
<path d="M148.702 146.148C149.25 146.148 149.694 145.704 149.694 145.156C149.694 144.608 149.25 144.163 148.702 144.163C148.153 144.163 147.709 144.608 147.709 145.156C147.709 145.704 148.153 146.148 148.702 146.148Z" fill="#D7E8F0"/>
<path d="M154.749 144.166C155.297 144.166 155.741 143.721 155.741 143.173C155.741 142.625 155.297 142.181 154.749 142.181C154.2 142.181 153.756 142.625 153.756 143.173C153.756 143.721 154.2 144.166 154.749 144.166Z" fill="#D7E8F0"/>
<g opacity="0.54">
<path d="M210.455 89.2575L209.312 89.7364L208.715 88.3133L209.861 87.8345C210.249 87.6718 210.557 87.3616 210.716 86.9721C210.875 86.5829 210.874 86.146 210.711 85.7578L206.367 75.3825L207.545 75.4013C207.744 75.4013 212.446 75.5278 215.373 79.4363L214.138 80.3617C212.508 78.1909 210.176 77.4027 208.758 77.1176L212.131 85.1876C212.444 85.9499 212.443 86.8048 212.129 87.5666C211.815 88.3287 211.214 88.9361 210.455 89.2575Z" fill="#228B22" fill-opacity="0.5"/>
<path d="M208.263 91.0114C209.186 91.0114 209.934 90.2633 209.934 89.3409C209.934 88.4183 209.186 87.6704 208.263 87.6704C207.341 87.6704 206.593 88.4183 206.593 89.3409C206.593 90.2633 207.341 91.0114 208.263 91.0114Z" fill="#228B22" fill-opacity="0.5"/>
</g>
<g opacity="0.46">
<path d="M171.962 98.729H170.717V97.1823H171.962C172.384 97.1815 172.789 97.0136 173.087 96.715C173.386 96.4167 173.554 96.0119 173.555 95.5898V84.9778L184.726 80.203V92.039C184.725 92.8823 184.389 93.6907 183.793 94.2868C183.196 94.8829 182.387 95.2178 181.544 95.2186H180.083V93.653H181.544C181.758 93.653 181.971 93.6108 182.169 93.5287C182.367 93.4467 182.547 93.3264 182.699 93.1747C182.85 93.023 182.971 92.843 183.053 92.6451C183.135 92.4468 183.177 92.2346 183.177 92.0202V82.5352L175.107 85.9999V95.5898C175.107 96.0025 175.025 96.4108 174.867 96.792C174.708 97.1731 174.477 97.5191 174.185 97.8107C173.893 98.1023 173.546 98.3333 173.165 98.491C172.784 98.6486 172.375 98.7293 171.962 98.729Z" fill="#228B22" fill-opacity="0.5"/>
<path d="M169.896 99.6302C170.822 99.6302 171.572 98.8797 171.572 97.9543C171.572 97.0287 170.822 96.2784 169.896 96.2784C168.97 96.2784 168.22 97.0287 168.22 97.9543C168.22 98.8797 168.97 99.6302 169.896 99.6302Z" fill="#228B22" fill-opacity="0.5"/>
<path d="M180.126 96.2784C181.052 96.2784 181.802 95.5282 181.802 94.6026C181.802 93.6769 181.052 92.9267 180.126 92.9267C179.201 92.9267 178.451 93.6769 178.451 94.6026C178.451 95.5282 179.201 96.2784 180.126 96.2784Z" fill="#228B22" fill-opacity="0.5"/>
</g>
<path d="M221.52 111.176L221.009 111.778L220.261 111.138L220.772 110.535C220.858 110.435 220.924 110.318 220.964 110.191C221.005 110.065 221.02 109.932 221.01 109.8C220.999 109.668 220.962 109.539 220.902 109.421C220.841 109.303 220.758 109.198 220.657 109.112L215.524 104.755L217.797 97.3813L223.519 102.239C223.927 102.587 224.18 103.081 224.224 103.614C224.268 104.148 224.099 104.677 223.753 105.086L223.15 105.793L222.403 105.155L223.002 104.451C223.091 104.347 223.158 104.227 223.199 104.097C223.241 103.968 223.257 103.831 223.246 103.696C223.235 103.56 223.197 103.428 223.135 103.307C223.073 103.186 222.988 103.078 222.884 102.99L218.311 99.0949L216.667 104.424L221.305 108.362C221.504 108.532 221.668 108.741 221.786 108.974C221.905 109.208 221.976 109.463 221.996 109.724C222.016 109.986 221.984 110.248 221.903 110.498C221.821 110.747 221.691 110.977 221.52 111.176Z" fill="#228B22" fill-opacity="0.5"/>
<path d="M220.298 112.919C220.885 112.919 221.361 112.443 221.361 111.856C221.361 111.269 220.885 110.794 220.298 110.794C219.711 110.794 219.236 111.269 219.236 111.856C219.236 112.443 219.711 112.919 220.298 112.919Z" fill="#228B22" fill-opacity="0.5"/>
<path d="M222.878 106.592C223.465 106.592 223.94 106.116 223.94 105.529C223.94 104.943 223.465 104.467 222.878 104.467C222.291 104.467 221.815 104.943 221.815 105.529C221.815 106.116 222.291 106.592 222.878 106.592Z" fill="#228B22" fill-opacity="0.5"/>
<path d="M241.479 126.635L239.986 126.135L240.611 124.276L242.103 124.779C242.354 124.863 242.619 124.898 242.883 124.88C243.147 124.862 243.405 124.792 243.642 124.674C243.879 124.557 244.091 124.394 244.265 124.194C244.439 123.995 244.572 123.763 244.656 123.512L248.939 110.783L264.272 109.548L259.497 123.743C259.154 124.756 258.424 125.592 257.465 126.067C256.507 126.541 255.399 126.616 254.386 126.275L252.662 125.686L253.286 123.827L255.04 124.419C255.559 124.592 256.127 124.553 256.618 124.309C257.109 124.066 257.483 123.638 257.66 123.119L261.488 111.741L250.394 112.634L246.523 124.139C246.356 124.634 246.093 125.091 245.749 125.485C245.405 125.878 244.987 126.2 244.518 126.432C244.05 126.664 243.54 126.801 243.019 126.836C242.498 126.871 241.974 126.802 241.479 126.635Z" fill="#228B22" fill-opacity="0.5"/>
<path d="M239.317 126.998C240.489 126.998 241.439 126.048 241.439 124.876C241.439 123.704 240.489 122.753 239.317 122.753C238.145 122.753 237.195 123.704 237.195 124.876C237.195 126.048 238.145 126.998 239.317 126.998Z" fill="#228B22" fill-opacity="0.5"/>
<path d="M252.944 127.106C254.117 127.106 255.067 126.156 255.067 124.983C255.067 123.811 254.117 122.861 252.944 122.861C251.772 122.861 250.822 123.811 250.822 124.983C250.822 126.156 251.772 127.106 252.944 127.106Z" fill="#228B22" fill-opacity="0.5"/>
<path d="M206.198 128.623L205.369 128.166L205.937 127.135L206.765 127.593C207.046 127.748 207.377 127.785 207.685 127.696C207.993 127.607 208.254 127.4 208.409 127.119L212.552 119.612L213.09 120.327C213.181 120.448 215.333 123.316 214.392 126.907L213.254 126.606C213.637 125.002 213.421 123.313 212.646 121.858L209.418 127.687C209.112 128.235 208.602 128.64 208 128.815C207.397 128.99 206.75 128.921 206.198 128.623Z" fill="#228B22" fill-opacity="0.5"/>
<path d="M205.11 128.623C205.815 128.623 206.385 128.052 206.385 127.348C206.385 126.644 205.815 126.073 205.11 126.073C204.406 126.073 203.835 126.644 203.835 127.348C203.835 128.052 204.406 128.623 205.11 128.623Z" fill="#228B22" fill-opacity="0.5"/>
<g opacity="0.56">
<path d="M183.736 134.199L182.609 134.737L181.756 132.927C181.216 133.226 180.62 133.41 180.005 133.465C179.49 133.51 178.972 133.426 178.498 133.22C178.024 133.014 177.609 132.694 177.291 132.287C176.723 131.593 176.365 130.673 176.199 129.462C175.87 127.1 176.344 124.763 176.968 122.764L176.266 121.263C176.061 120.833 175.728 120.112 175.997 119.38C176.099 119.141 176.257 118.93 176.459 118.765C176.66 118.601 176.898 118.487 177.153 118.434C177.407 118.382 177.671 118.391 177.921 118.462C178.172 118.533 178.401 118.664 178.59 118.842C179.397 119.698 178.932 120.959 178.73 121.497C178.593 121.871 178.461 122.267 178.316 122.678L180.255 126.799C181.331 126.043 182.832 126.283 183.765 127.353C184.621 128.332 184.667 129.683 183.889 130.963C183.599 131.436 183.236 131.86 182.813 132.22L183.736 134.199ZM177.78 124.483C177.366 126.048 177.248 127.677 177.433 129.285C177.568 130.256 177.837 130.977 178.256 131.488C178.45 131.738 178.703 131.936 178.993 132.062C179.284 132.189 179.601 132.24 179.916 132.211C180.377 132.167 180.823 132.026 181.226 131.797L180.129 129.465C180.107 129.578 180.088 129.696 180.075 129.817L178.835 129.672C178.906 129.036 179.088 128.417 179.373 127.843L177.78 124.483ZM180.796 127.956L182.243 131.044C182.461 130.827 182.653 130.584 182.813 130.32C183.045 129.941 183.51 128.975 182.813 128.168C182.375 127.668 181.584 127.361 180.957 127.819C180.899 127.859 180.845 127.905 180.796 127.956ZM177.299 119.676C177.269 119.687 177.242 119.704 177.219 119.726C177.196 119.748 177.177 119.774 177.164 119.802C177.081 120.028 177.24 120.4 177.396 120.731L177.552 121.064C177.721 120.604 177.92 119.961 177.675 119.703C177.637 119.674 177.594 119.654 177.547 119.645C177.5 119.636 177.452 119.637 177.406 119.649C177.368 119.653 177.331 119.662 177.296 119.676H177.299Z" fill="#228B22" fill-opacity="0.5"/>
</g>
<path d="M234.153 100.685L232.808 99.7028L234.376 97.5508C233.685 97.107 233.094 96.5243 232.641 95.84C232.26 95.267 232.029 94.6082 231.968 93.9236C231.906 93.2388 232.017 92.5493 232.288 91.918C232.738 90.8124 233.59 89.8063 234.892 88.8433C237.445 86.9603 240.48 86.0215 243.213 85.4754L244.509 83.7054C244.886 83.1916 245.513 82.3362 246.537 82.1802C246.883 82.143 247.233 82.1912 247.556 82.3203C247.88 82.4494 248.166 82.6555 248.392 82.9204C248.617 83.1857 248.774 83.502 248.85 83.8418C248.925 84.1815 248.916 84.5345 248.824 84.8702C248.342 86.3604 246.567 86.616 245.811 86.7263C245.273 86.8016 244.735 86.8877 244.168 86.9953L240.584 91.8884C242.15 92.6631 242.831 94.5784 242.174 96.343C241.572 97.957 240.022 98.8824 238.029 98.7855C237.292 98.7454 236.566 98.5902 235.877 98.3255L234.153 100.685ZM241.717 87.536C239.707 88.074 237.65 88.881 235.885 90.1883C234.836 90.963 234.166 91.735 233.835 92.5528C233.664 92.9377 233.594 93.3598 233.631 93.7794C233.667 94.1991 233.81 94.6026 234.045 94.9523C234.389 95.4631 234.837 95.8951 235.36 96.2193L237.389 93.4513C237.243 93.4997 237.096 93.5535 236.945 93.6127L236.326 92.0713C237.112 91.7493 237.949 91.5672 238.798 91.5333L241.717 87.536ZM239.578 93.271L236.907 96.9214C237.3 97.0362 237.706 97.1056 238.115 97.1285C238.707 97.1554 240.135 97.0801 240.622 95.7673C240.929 94.9388 240.77 93.8252 239.847 93.3733C239.76 93.3321 239.67 93.2979 239.578 93.271ZM247.03 83.9071C246.964 83.8536 246.88 83.8256 246.796 83.8291C246.478 83.8776 246.145 84.2999 245.857 84.6926L245.569 85.0881C246.215 84.9966 247.092 84.8191 247.239 84.3671C247.249 84.302 247.243 84.2353 247.223 84.1729C247.202 84.1102 247.167 84.0535 247.121 84.0067C247.094 83.9704 247.063 83.9373 247.03 83.9071Z" fill="#228B22" fill-opacity="0.5"/>
<defs>
<clipPath id="clip0_0_1">
<rect width="84" height="73" fill="white" transform="translate(0 108)"/>
</clipPath>
</defs>
</svg>
