   <svg width="84" height="73" viewBox="0 0 84 73" fill="none" xmlns="http://www.w3.org/2000/svg">
<g opacity="0.5" clip-path="url(#clip0_5_60)">
<path fill-rule="evenodd" clip-rule="evenodd" d="M76.3949 38.9194C75.3331 35.393 72.84 32.6329 70.2519 30.104C65.2137 25.1808 62.504 22.1368 60.7083 14.9351C59.6524 10.6996 58.5776 6.21126 55.2282 3.13835C52.7895 0.900592 48.5921 -0.979523 45.3306 0.622891C40.3131 3.60455 38.9657 9.7234 39.4716 15.2025C40.0988 21.9934 43.2849 26.1807 49.4058 28.6819C52.8547 30.0906 55.1473 31.9494 57.0195 35.1883C58.517 37.7783 59.3902 41.0214 61.272 43.3693C64.0855 46.879 67.6062 48.4392 71.9459 47.8562C67.8812 40.4104 63.132 32.8946 57.4038 26.6256C56.8677 25.9953 53.7051 23.583 54.3429 22.5088C55.0456 21.3262 58.2923 25.7688 58.2693 25.742C59.9339 27.6444 61.4743 29.6661 62.987 31.7071C62.9831 31.7091 62.9786 31.7102 62.9744 31.7123C64.5318 33.8067 66.0768 35.9319 67.5923 38.0838C68.2052 38.994 68.8018 39.9159 69.3729 40.8608C70.2109 42.2475 71.5409 46.183 72.9124 47.0357C73.2058 47.218 73.4771 47.3199 73.7307 47.3619C74.6663 48.8872 75.5768 50.4248 76.4427 51.9805C78.704 56.0437 80.6448 60.3339 81.5357 64.9212C81.7956 66.2601 81.6116 71.2686 82.5296 72.2351C84.208 74.0031 83.7163 70.5985 83.616 69.5709C82.7823 61.0613 79.7139 53.8115 75.2586 46.6575C76.6273 44.8778 76.8249 40.3482 76.3949 38.9194Z" fill="#228B22"/>
<path fill-rule="evenodd" clip-rule="evenodd" d="M18.9109 43.031C20.6803 40.9554 24.9338 40.6032 27.5352 40.7421C30.7541 40.914 34.0604 41.6942 37.1229 42.6375C42.1678 44.1913 47.0698 47.0269 51.5128 49.7714C52.0483 50.1021 58.6449 54.0516 58.0609 54.7448C57.4825 55.4315 51.0067 50.74 49.5635 49.9314C46.4838 48.2054 43.6594 46.1642 40.2646 45.0244C36.7496 43.8441 33.0322 43.3767 29.336 43.4089C28.8616 43.4131 27.3142 43.0838 27.2808 43.7826C27.2481 44.4659 29.8085 44.1094 30.26 44.1135C32.1247 44.1305 34.001 44.3053 35.8393 44.627C39.2835 45.2297 42.5215 46.444 45.4713 48.3065C44.6483 50.2119 42.6751 51.0904 40.6053 50.6136C38.8163 50.2013 37.0724 49.1848 35.3207 48.8908C34.1143 48.6885 32.9063 48.8089 31.7364 49.1473C28.6505 50.0402 26.8707 51.8693 23.4778 50.597C20.818 49.5995 16.3698 46.016 18.9109 43.031Z" fill="#228B22"/>
<path fill-rule="evenodd" clip-rule="evenodd" d="M20.9121 23.3883H21.7492C21.6906 22.3307 21.6142 21.2748 21.4347 20.229C20.7618 16.3089 18.6578 10.5513 14.0433 9.91503C13.8731 9.89132 13.2469 9.88734 12.4883 9.93114C12.1288 9.73329 11.7261 9.61364 11.3018 9.58613C7.37297 9.30084 2.98545 12.4226 1.09034 15.6713C-0.437397 18.2906 -0.180027 21.7301 0.763596 24.5129C1.39548 26.3759 2.77458 29.0321 5.07442 29.058C7.95178 29.0904 8.09053 25.5878 8.14618 23.5401C8.22013 20.8178 8.56939 18.4463 10.7473 16.5907C11.2549 16.1585 11.8097 15.7781 12.3225 15.3518C13.1253 14.6846 14.0126 14.0015 14.116 12.8976C14.2588 11.3747 13.386 11.1007 12.0534 11.3836C11.8262 11.4318 9.5379 12.4431 9.87673 11.6437C9.98015 11.3995 10.358 11.206 10.8348 11.061C12.0688 10.9289 13.5403 10.7756 13.9635 10.8672C18.5291 11.8537 20.3067 18.0827 20.7788 22.0402C20.8323 22.4883 20.875 22.938 20.9121 23.3883H20.9121Z" fill="#228B22"/>
</g>
<defs>
<clipPath id="clip0_5_60">
<rect width="84" height="73" fill="white"/>
</clipPath>
</defs>
</svg>